<?xml version="1.0" encoding="UTF-8" standalone="no"?>
<!DOCTYPE svg PUBLIC "-//W3C//DTD SVG 1.1//EN" "http://www.w3.org/Graphics/SVG/1.1/DTD/svg11.dtd">
<svg width="100%" height="100%" viewBox="0 0 300 43" version="1.1" xmlns="http://www.w3.org/2000/svg" xmlns:xlink="http://www.w3.org/1999/xlink" xml:space="preserve" xmlns:serif="http://www.serif.com/" style="fill-rule:evenodd;clip-rule:evenodd;stroke-linejoin:round;stroke-miterlimit:2;">
    <g transform="matrix(0.619231,0,0,0.895833,0,7.10543e-15)">
        <path d="M260,13.395C260,6.002 251.317,0 240.621,0L19.379,0C8.683,0 0,6.002 0,13.395L0,34.605C0,41.998 8.683,48 19.379,48L240.621,48C251.317,48 260,41.998 260,34.605L260,13.395Z" style="fill:rgb(26,26,26);"/>
    </g>
    <g transform="matrix(0.04,0,0,0.04,36,7.34003)">
        <g>
            <g transform="matrix(1.01698,0,0,1.01698,-658.217,12.8172)">
                <g transform="matrix(1.48454,0,0,1.48454,129.722,-266.457)">
                    <circle cx="144.258" cy="405.474" r="226.197" style="fill:rgb(58,134,255);"/>
                </g>
                <g transform="matrix(0.659837,0,0,0.659829,79.7543,69.9811)">
                    <g transform="matrix(1.00962,-0.418958,0.464995,1.12056,-219.703,46.3383)">
                        <rect x="159.722" y="210.911" width="354.566" height="465.657" style="fill:white;"/>
                    </g>
                    <g transform="matrix(1.02479,0.380357,-0.422153,1.1374,322.947,-233.168)">
                        <rect x="159.722" y="210.911" width="354.566" height="465.657" style="fill:white;"/>
                        <path d="M531.33,195.557L531.33,691.922L142.681,691.922L142.681,195.557L531.33,195.557ZM176.764,661.213L497.247,661.213L497.247,226.265L176.764,226.265L176.764,661.213Z" style="fill:rgb(58,134,255);fill-rule:nonzero;"/>
                    </g>
                </g>
            </g>
            <g transform="matrix(1.65473,0,0,1.65473,-1230.35,18.7539)">
                <g transform="matrix(346.444,0,0,346.444,847.363,307.677)">
                    <path d="M0.415,-0.369L0.445,-0.48C0.418,-0.499 0.376,-0.513 0.314,-0.513C0.2,-0.513 0.025,-0.458 0.025,-0.251C0.025,-0.055 0.19,0.012 0.312,0.012C0.368,0.012 0.417,-0.003 0.44,-0.017L0.44,-0.131C0.411,-0.112 0.368,-0.1 0.331,-0.1C0.24,-0.1 0.156,-0.147 0.156,-0.258C0.156,-0.361 0.24,-0.398 0.312,-0.398C0.352,-0.398 0.388,-0.386 0.415,-0.369Z" style="fill:white;fill-rule:nonzero;"/>
                </g>
                <g transform="matrix(346.444,0,0,346.444,1004.65,307.677)">
                    <path d="M0.153,-0.157C0.153,-0.198 0.182,-0.216 0.242,-0.222L0.313,-0.229L0.313,-0.194C0.313,-0.132 0.273,-0.094 0.227,-0.094C0.176,-0.094 0.153,-0.122 0.153,-0.157ZM0.44,-0.327C0.44,-0.457 0.34,-0.512 0.223,-0.512C0.174,-0.512 0.121,-0.504 0.072,-0.479L0.041,-0.361C0.09,-0.388 0.141,-0.402 0.194,-0.402C0.264,-0.402 0.313,-0.375 0.313,-0.324L0.313,-0.313L0.247,-0.307C0.146,-0.298 0.024,-0.28 0.024,-0.142C0.024,-0.061 0.086,0.008 0.185,0.008C0.251,0.008 0.295,-0.026 0.318,-0.084L0.319,0L0.44,0L0.44,-0.327Z" style="fill:white;fill-rule:nonzero;"/>
                </g>
                <g transform="matrix(346.444,0,0,346.444,1169.56,307.677)">
                    <path d="M0.349,-0.359L0.373,-0.488C0.359,-0.503 0.336,-0.511 0.313,-0.511C0.241,-0.511 0.2,-0.46 0.178,-0.394L0.177,-0.503L0.055,-0.503L0.055,0L0.184,0L0.184,-0.249C0.184,-0.343 0.226,-0.375 0.287,-0.375C0.309,-0.375 0.332,-0.369 0.349,-0.359Z" style="fill:white;fill-rule:nonzero;"/>
                </g>
                <g transform="matrix(346.444,0,0,346.444,1291.85,307.677)">
                    <path d="M0.29,-0.403C0.378,-0.403 0.424,-0.335 0.424,-0.252C0.424,-0.169 0.378,-0.1 0.29,-0.1C0.202,-0.1 0.155,-0.169 0.155,-0.252C0.155,-0.335 0.202,-0.403 0.29,-0.403ZM0.427,-0.094L0.428,0L0.553,0L0.553,-0.718L0.424,-0.718L0.424,-0.417C0.395,-0.475 0.335,-0.514 0.257,-0.514C0.114,-0.514 0.025,-0.4 0.025,-0.252C0.025,-0.103 0.114,0.011 0.255,0.011C0.338,0.011 0.399,-0.032 0.427,-0.094Z" style="fill:white;fill-rule:nonzero;"/>
                </g>
                <g transform="matrix(346.444,0,0,346.444,1499.02,307.677)">
                    <path d="M0.415,-0.369L0.445,-0.48C0.418,-0.499 0.376,-0.513 0.314,-0.513C0.2,-0.513 0.025,-0.458 0.025,-0.251C0.025,-0.055 0.19,0.012 0.312,0.012C0.368,0.012 0.417,-0.003 0.44,-0.017L0.44,-0.131C0.411,-0.112 0.368,-0.1 0.331,-0.1C0.24,-0.1 0.156,-0.147 0.156,-0.258C0.156,-0.361 0.24,-0.398 0.312,-0.398C0.352,-0.398 0.388,-0.386 0.415,-0.369Z" style="fill:white;fill-rule:nonzero;"/>
                </g>
                <g transform="matrix(346.444,0,0,346.444,1656.31,307.677)">
                    <rect x="0.055" y="-0.718" width="0.129" height="0.718" style="fill:white;"/>
                </g>
                <g transform="matrix(346.444,0,0,346.444,1735.65,307.677)">
                    <path d="M0.491,-0.503L0.362,-0.503L0.362,-0.222C0.362,-0.143 0.326,-0.106 0.265,-0.106C0.206,-0.106 0.178,-0.145 0.178,-0.203L0.178,-0.503L0.049,-0.503L0.049,-0.172C0.049,-0.063 0.112,0.009 0.219,0.009C0.294,0.009 0.344,-0.031 0.367,-0.083L0.368,0L0.491,0L0.491,-0.503Z" style="fill:white;fill-rule:nonzero;"/>
                </g>
                <g transform="matrix(346.444,0,0,346.444,1921.34,307.677)">
                    <path d="M0.384,-0.478C0.351,-0.502 0.297,-0.515 0.245,-0.515C0.11,-0.515 0.031,-0.45 0.031,-0.356C0.031,-0.279 0.073,-0.242 0.139,-0.216L0.221,-0.184C0.259,-0.169 0.272,-0.161 0.272,-0.139C0.272,-0.11 0.247,-0.094 0.198,-0.094C0.153,-0.094 0.098,-0.105 0.042,-0.146L0.042,-0.03C0.074,0 0.141,0.014 0.197,0.014C0.319,0.014 0.398,-0.047 0.398,-0.148C0.398,-0.221 0.358,-0.257 0.285,-0.286L0.205,-0.318C0.167,-0.333 0.158,-0.343 0.158,-0.363C0.158,-0.39 0.183,-0.406 0.235,-0.406C0.271,-0.406 0.318,-0.396 0.356,-0.369L0.384,-0.478Z" style="fill:white;fill-rule:nonzero;"/>
                </g>
                <g transform="matrix(346.444,0,0,346.444,2063.73,307.677)">
                    <path d="M0.202,-0.503L0.202,-0.612L0.163,-0.612L0.005,-0.427L0.005,-0.399L0.073,-0.399L0.073,-0.157C0.073,-0.056 0.131,0.006 0.247,0.006C0.282,0.006 0.323,-0.002 0.343,-0.018L0.343,-0.122C0.325,-0.113 0.302,-0.108 0.285,-0.108C0.229,-0.108 0.202,-0.13 0.202,-0.185L0.202,-0.399L0.339,-0.399L0.339,-0.503L0.202,-0.503Z" style="fill:white;fill-rule:nonzero;"/>
                </g>
                <g transform="matrix(346.444,0,0,346.444,2182.56,307.677)">
                    <path d="M0.482,-0.024L0.482,-0.137C0.449,-0.113 0.392,-0.096 0.336,-0.096C0.232,-0.096 0.175,-0.135 0.159,-0.206L0.501,-0.206C0.504,-0.222 0.505,-0.247 0.505,-0.265C0.505,-0.4 0.422,-0.516 0.28,-0.516C0.117,-0.516 0.025,-0.394 0.025,-0.253C0.025,-0.099 0.124,0.013 0.322,0.013C0.376,0.013 0.446,0 0.482,-0.024ZM0.379,-0.296L0.157,-0.296C0.168,-0.365 0.21,-0.408 0.275,-0.408C0.333,-0.408 0.371,-0.364 0.379,-0.296Z" style="fill:white;fill-rule:nonzero;"/>
                </g>
                <g transform="matrix(346.444,0,0,346.444,2364.44,307.677)">
                    <path d="M0.349,-0.359L0.373,-0.488C0.359,-0.503 0.336,-0.511 0.313,-0.511C0.241,-0.511 0.2,-0.46 0.178,-0.394L0.177,-0.503L0.055,-0.503L0.055,0L0.184,0L0.184,-0.249C0.184,-0.343 0.226,-0.375 0.287,-0.375C0.309,-0.375 0.332,-0.369 0.349,-0.359Z" style="fill:white;fill-rule:nonzero;"/>
                </g>
            </g>
        </g>
    </g>
    <g transform="matrix(1.52177,0,0,1.52177,-94.6413,-3.98698)">
        <text x="173.04px" y="21.895px" style="font-family:'Inter';font-size:13.143px;font-weight:500;fill:white;fill-opacity:0.6;">Help Cent<tspan x="234.595px " y="21.895px ">e</tspan>r</text>
    </g>
</svg>
